<svg width="199" height="200" viewBox="0 0 199 200" fill="none" xmlns="http://www.w3.org/2000/svg">
<g clip-path="url(#clip0_1215_531)">
<path d="M199 0H0V200H199V0Z" fill="white"/>
<path d="M4.85366 195.122H0V200H4.85366V195.122Z" fill="black"/>
<path d="M4.85366 190.244H0V195.122H4.85366V190.244Z" fill="black"/>
<path d="M4.85366 185.366H0V190.244H4.85366V185.366Z" fill="black"/>
<path d="M4.85366 180.488H0V185.366H4.85366V180.488Z" fill="black"/>
<path d="M4.85366 175.609H0V180.487H4.85366V175.609Z" fill="black"/>
<path d="M4.85366 170.731H0V175.609H4.85366V170.731Z" fill="black"/>
<path d="M4.85366 165.854H0V170.732H4.85366V165.854Z" fill="black"/>
<path d="M4.85366 151.22H0V156.098H4.85366V151.22Z" fill="black"/>
<path d="M4.85366 146.342H0V151.22H4.85366V146.342Z" fill="black"/>
<path d="M4.85366 141.464H0V146.342H4.85366V141.464Z" fill="black"/>
<path d="M4.85366 131.707H0V136.585H4.85366V131.707Z" fill="black"/>
<path d="M4.85366 117.073H0V121.951H4.85366V117.073Z" fill="black"/>
<path d="M4.85366 112.195H0V117.073H4.85366V112.195Z" fill="black"/>
<path d="M4.85366 107.317H0V112.195H4.85366V107.317Z" fill="black"/>
<path d="M4.85366 102.439H0V107.318H4.85366V102.439Z" fill="black"/>
<path d="M4.85366 92.6826H0V97.5607H4.85366V92.6826Z" fill="black"/>
<path d="M4.85366 87.8047H0V92.6827H4.85366V87.8047Z" fill="black"/>
<path d="M4.85366 82.9268H0V87.8048H4.85366V82.9268Z" fill="black"/>
<path d="M4.85366 78.0488H0V82.9269H4.85366V78.0488Z" fill="black"/>
<path d="M4.85366 73.1709H0V78.0489H4.85366V73.1709Z" fill="black"/>
<path d="M4.85366 68.293H0V73.171H4.85366V68.293Z" fill="black"/>
<path d="M4.85366 63.415H0V68.2931H4.85366V63.415Z" fill="black"/>
<path d="M4.85366 58.5361H0V63.4142H4.85366V58.5361Z" fill="black"/>
<path d="M4.85366 48.7803H0V53.6583H4.85366V48.7803Z" fill="black"/>
<path d="M4.85366 43.9023H0V48.7804H4.85366V43.9023Z" fill="black"/>
<path d="M4.85366 29.2686H0V34.1466H4.85366V29.2686Z" fill="black"/>
<path d="M4.85366 24.3906H0V29.2687H4.85366V24.3906Z" fill="black"/>
<path d="M4.85366 19.5117H0V24.3898H4.85366V19.5117Z" fill="black"/>
<path d="M4.85366 14.6338H0V19.5118H4.85366V14.6338Z" fill="black"/>
<path d="M4.85366 9.75586H0V14.6339H4.85366V9.75586Z" fill="black"/>
<path d="M4.85366 4.87793H0V9.75598H4.85366V4.87793Z" fill="black"/>
<path d="M4.85366 0H0V4.87805H4.85366V0Z" fill="black"/>
<path d="M9.70742 195.122H4.85376V200H9.70742V195.122Z" fill="black"/>
<path d="M9.70742 165.854H4.85376V170.732H9.70742V165.854Z" fill="black"/>
<path d="M9.70742 146.342H4.85376V151.22H9.70742V146.342Z" fill="black"/>
<path d="M9.70742 136.585H4.85376V141.463H9.70742V136.585Z" fill="black"/>
<path d="M9.70742 131.707H4.85376V136.585H9.70742V131.707Z" fill="black"/>
<path d="M9.70742 112.195H4.85376V117.073H9.70742V112.195Z" fill="black"/>
<path d="M9.70742 87.8047H4.85376V92.6827H9.70742V87.8047Z" fill="black"/>
<path d="M9.70742 78.0488H4.85376V82.9269H9.70742V78.0488Z" fill="black"/>
<path d="M9.70742 73.1709H4.85376V78.0489H9.70742V73.1709Z" fill="black"/>
<path d="M9.70742 68.293H4.85376V73.171H9.70742V68.293Z" fill="black"/>
<path d="M9.70742 63.415H4.85376V68.2931H9.70742V63.415Z" fill="black"/>
<path d="M9.70742 58.5361H4.85376V63.4142H9.70742V58.5361Z" fill="black"/>
<path d="M9.70742 53.6582H4.85376V58.5363H9.70742V53.6582Z" fill="black"/>
<path d="M9.70742 39.0244H4.85376V43.9025H9.70742V39.0244Z" fill="black"/>
<path d="M9.70742 29.2686H4.85376V34.1466H9.70742V29.2686Z" fill="black"/>
<path d="M9.70742 0H4.85376V4.87805H9.70742V0Z" fill="black"/>
<path d="M14.5609 195.122H9.70728V200H14.5609V195.122Z" fill="black"/>
<path d="M14.5609 185.366H9.70728V190.244H14.5609V185.366Z" fill="black"/>
<path d="M14.5609 180.488H9.70728V185.366H14.5609V180.488Z" fill="black"/>
<path d="M14.5609 175.609H9.70728V180.487H14.5609V175.609Z" fill="black"/>
<path d="M14.5609 165.854H9.70728V170.732H14.5609V165.854Z" fill="black"/>
<path d="M14.5609 156.098H9.70728V160.976H14.5609V156.098Z" fill="black"/>
<path d="M14.5609 151.22H9.70728V156.098H14.5609V151.22Z" fill="black"/>
<path d="M14.5609 146.342H9.70728V151.22H14.5609V146.342Z" fill="black"/>
<path d="M14.5609 141.464H9.70728V146.342H14.5609V141.464Z" fill="black"/>
<path d="M14.5609 136.585H9.70728V141.463H14.5609V136.585Z" fill="black"/>
<path d="M14.5609 131.707H9.70728V136.585H14.5609V131.707Z" fill="black"/>
<path d="M14.5609 117.073H9.70728V121.951H14.5609V117.073Z" fill="black"/>
<path d="M14.5609 87.8047H9.70728V92.6827H14.5609V87.8047Z" fill="black"/>
<path d="M14.5609 63.415H9.70728V68.2931H14.5609V63.415Z" fill="black"/>
<path d="M14.5609 53.6582H9.70728V58.5363H14.5609V53.6582Z" fill="black"/>
<path d="M14.5609 39.0244H9.70728V43.9025H14.5609V39.0244Z" fill="black"/>
<path d="M14.5609 29.2686H9.70728V34.1466H14.5609V29.2686Z" fill="black"/>
<path d="M14.5609 19.5117H9.70728V24.3898H14.5609V19.5117Z" fill="black"/>
<path d="M14.5609 14.6338H9.70728V19.5118H14.5609V14.6338Z" fill="black"/>
<path d="M14.5609 9.75586H9.70728V14.6339H14.5609V9.75586Z" fill="black"/>
<path d="M14.5609 0H9.70728V4.87805H14.5609V0Z" fill="black"/>
<path d="M19.4147 195.122H14.561V200H19.4147V195.122Z" fill="black"/>
<path d="M19.4147 185.366H14.561V190.244H19.4147V185.366Z" fill="black"/>
<path d="M19.4147 180.488H14.561V185.366H19.4147V180.488Z" fill="black"/>
<path d="M19.4147 175.609H14.561V180.487H19.4147V175.609Z" fill="black"/>
<path d="M19.4147 165.854H14.561V170.732H19.4147V165.854Z" fill="black"/>
<path d="M19.4147 126.829H14.561V131.707H19.4147V126.829Z" fill="black"/>
<path d="M19.4147 112.195H14.561V117.073H19.4147V112.195Z" fill="black"/>
<path d="M19.4147 107.317H14.561V112.195H19.4147V107.317Z" fill="black"/>
<path d="M19.4147 97.5605H14.561V102.439H19.4147V97.5605Z" fill="black"/>
<path d="M19.4147 92.6826H14.561V97.5607H19.4147V92.6826Z" fill="black"/>
<path d="M19.4147 87.8047H14.561V92.6827H19.4147V87.8047Z" fill="black"/>
<path d="M19.4147 82.9268H14.561V87.8048H19.4147V82.9268Z" fill="black"/>
<path d="M19.4147 78.0488H14.561V82.9269H19.4147V78.0488Z" fill="black"/>
<path d="M19.4147 73.1709H14.561V78.0489H19.4147V73.1709Z" fill="black"/>
<path d="M19.4147 68.293H14.561V73.171H19.4147V68.293Z" fill="black"/>
<path d="M19.4147 63.415H14.561V68.2931H19.4147V63.415Z" fill="black"/>
<path d="M19.4147 58.5361H14.561V63.4142H19.4147V58.5361Z" fill="black"/>
<path d="M19.4147 53.6582H14.561V58.5363H19.4147V53.6582Z" fill="black"/>
<path d="M19.4147 48.7803H14.561V53.6583H19.4147V48.7803Z" fill="black"/>
<path d="M19.4147 29.2686H14.561V34.1466H19.4147V29.2686Z" fill="black"/>
<path d="M19.4147 19.5117H14.561V24.3898H19.4147V19.5117Z" fill="black"/>
<path d="M19.4147 14.6338H14.561V19.5118H19.4147V14.6338Z" fill="black"/>
<path d="M19.4147 9.75586H14.561V14.6339H19.4147V9.75586Z" fill="black"/>
<path d="M19.4147 0H14.561V4.87805H19.4147V0Z" fill="black"/>
<path d="M24.2682 195.122H19.4146V200H24.2682V195.122Z" fill="black"/>
<path d="M24.2682 185.366H19.4146V190.244H24.2682V185.366Z" fill="black"/>
<path d="M24.2682 180.488H19.4146V185.366H24.2682V180.488Z" fill="black"/>
<path d="M24.2682 175.609H19.4146V180.487H24.2682V175.609Z" fill="black"/>
<path d="M24.2682 165.854H19.4146V170.732H24.2682V165.854Z" fill="black"/>
<path d="M24.2682 146.342H19.4146V151.22H24.2682V146.342Z" fill="black"/>
<path d="M24.2682 131.707H19.4146V136.585H24.2682V131.707Z" fill="black"/>
<path d="M24.2682 126.829H19.4146V131.707H24.2682V126.829Z" fill="black"/>
<path d="M24.2682 121.951H19.4146V126.829H24.2682V121.951Z" fill="black"/>
<path d="M24.2682 112.195H19.4146V117.073H24.2682V112.195Z" fill="black"/>
<path d="M24.2682 97.5605H19.4146V102.439H24.2682V97.5605Z" fill="black"/>
<path d="M24.2682 92.6826H19.4146V97.5607H24.2682V92.6826Z" fill="black"/>
<path d="M24.2682 87.8047H19.4146V92.6827H24.2682V87.8047Z" fill="black"/>
<path d="M24.2682 82.9268H19.4146V87.8048H24.2682V82.9268Z" fill="black"/>
<path d="M24.2682 68.293H19.4146V73.171H24.2682V68.293Z" fill="black"/>
<path d="M24.2682 63.415H19.4146V68.2931H24.2682V63.415Z" fill="black"/>
<path d="M24.2682 58.5361H19.4146V63.4142H24.2682V58.5361Z" fill="black"/>
<path d="M24.2682 48.7803H19.4146V53.6583H24.2682V48.7803Z" fill="black"/>
<path d="M24.2682 43.9023H19.4146V48.7804H24.2682V43.9023Z" fill="black"/>
<path d="M24.2682 39.0244H19.4146V43.9025H24.2682V39.0244Z" fill="black"/>
<path d="M24.2682 29.2686H19.4146V34.1466H24.2682V29.2686Z" fill="black"/>
<path d="M24.2682 19.5117H19.4146V24.3898H24.2682V19.5117Z" fill="black"/>
<path d="M24.2682 14.6338H19.4146V19.5118H24.2682V14.6338Z" fill="black"/>
<path d="M24.2682 9.75586H19.4146V14.6339H24.2682V9.75586Z" fill="black"/>
<path d="M24.2682 0H19.4146V4.87805H24.2682V0Z" fill="black"/>
<path d="M29.122 195.122H24.2683V200H29.122V195.122Z" fill="black"/>
<path d="M29.122 165.854H24.2683V170.732H29.122V165.854Z" fill="black"/>
<path d="M29.122 151.22H24.2683V156.098H29.122V151.22Z" fill="black"/>
<path d="M29.122 146.342H24.2683V151.22H29.122V146.342Z" fill="black"/>
<path d="M29.122 136.585H24.2683V141.463H29.122V136.585Z" fill="black"/>
<path d="M29.122 131.707H24.2683V136.585H29.122V131.707Z" fill="black"/>
<path d="M29.122 121.951H24.2683V126.829H29.122V121.951Z" fill="black"/>
<path d="M29.122 102.439H24.2683V107.318H29.122V102.439Z" fill="black"/>
<path d="M29.122 92.6826H24.2683V97.5607H29.122V92.6826Z" fill="black"/>
<path d="M29.122 87.8047H24.2683V92.6827H29.122V87.8047Z" fill="black"/>
<path d="M29.122 82.9268H24.2683V87.8048H29.122V82.9268Z" fill="black"/>
<path d="M29.122 78.0488H24.2683V82.9269H29.122V78.0488Z" fill="black"/>
<path d="M29.122 73.1709H24.2683V78.0489H29.122V73.1709Z" fill="black"/>
<path d="M29.122 68.293H24.2683V73.171H29.122V68.293Z" fill="black"/>
<path d="M29.122 63.415H24.2683V68.2931H29.122V63.415Z" fill="black"/>
<path d="M29.122 58.5361H24.2683V63.4142H29.122V58.5361Z" fill="black"/>
<path d="M29.122 53.6582H24.2683V58.5363H29.122V53.6582Z" fill="black"/>
<path d="M29.122 48.7803H24.2683V53.6583H29.122V48.7803Z" fill="black"/>
<path d="M29.122 39.0244H24.2683V43.9025H29.122V39.0244Z" fill="black"/>
<path d="M29.122 29.2686H24.2683V34.1466H29.122V29.2686Z" fill="black"/>
<path d="M29.122 0H24.2683V4.87805H29.122V0Z" fill="black"/>
<path d="M33.9757 195.122H29.1221V200H33.9757V195.122Z" fill="black"/>
<path d="M33.9757 190.244H29.1221V195.122H33.9757V190.244Z" fill="black"/>
<path d="M33.9757 185.366H29.1221V190.244H33.9757V185.366Z" fill="black"/>
<path d="M33.9757 180.488H29.1221V185.366H33.9757V180.488Z" fill="black"/>
<path d="M33.9757 175.609H29.1221V180.487H33.9757V175.609Z" fill="black"/>
<path d="M33.9757 170.731H29.1221V175.609H33.9757V170.731Z" fill="black"/>
<path d="M33.9757 165.854H29.1221V170.732H33.9757V165.854Z" fill="black"/>
<path d="M33.9757 156.098H29.1221V160.976H33.9757V156.098Z" fill="black"/>
<path d="M33.9757 146.342H29.1221V151.22H33.9757V146.342Z" fill="black"/>
<path d="M33.9757 136.585H29.1221V141.463H33.9757V136.585Z" fill="black"/>
<path d="M33.9757 126.829H29.1221V131.707H33.9757V126.829Z" fill="black"/>
<path d="M33.9757 117.073H29.1221V121.951H33.9757V117.073Z" fill="black"/>
<path d="M33.9757 107.317H29.1221V112.195H33.9757V107.317Z" fill="black"/>
<path d="M33.9757 97.5605H29.1221V102.439H33.9757V97.5605Z" fill="black"/>
<path d="M33.9757 87.8047H29.1221V92.6827H33.9757V87.8047Z" fill="black"/>
<path d="M33.9757 78.0488H29.1221V82.9269H33.9757V78.0488Z" fill="black"/>
<path d="M33.9757 68.293H29.1221V73.171H33.9757V68.293Z" fill="black"/>
<path d="M33.9757 58.5361H29.1221V63.4142H33.9757V58.5361Z" fill="black"/>
<path d="M33.9757 48.7803H29.1221V53.6583H33.9757V48.7803Z" fill="black"/>
<path d="M33.9757 29.2686H29.1221V34.1466H33.9757V29.2686Z" fill="black"/>
<path d="M33.9757 24.3906H29.1221V29.2687H33.9757V24.3906Z" fill="black"/>
<path d="M33.9757 19.5117H29.1221V24.3898H33.9757V19.5117Z" fill="black"/>
<path d="M33.9757 14.6338H29.1221V19.5118H33.9757V14.6338Z" fill="black"/>
<path d="M33.9757 9.75586H29.1221V14.6339H33.9757V9.75586Z" fill="black"/>
<path d="M33.9757 4.87793H29.1221V9.75598H33.9757V4.87793Z" fill="black"/>
<path d="M33.9757 0H29.1221V4.87805H33.9757V0Z" fill="black"/>
<path d="M38.8292 146.342H33.9756V151.22H38.8292V146.342Z" fill="black"/>
<path d="M38.8292 141.464H33.9756V146.342H38.8292V141.464Z" fill="black"/>
<path d="M38.8292 131.707H33.9756V136.585H38.8292V131.707Z" fill="black"/>
<path d="M38.8292 126.829H33.9756V131.707H38.8292V126.829Z" fill="black"/>
<path d="M38.8292 112.195H33.9756V117.073H38.8292V112.195Z" fill="black"/>
<path d="M38.8292 107.317H33.9756V112.195H38.8292V107.317Z" fill="black"/>
<path d="M38.8292 102.439H33.9756V107.318H38.8292V102.439Z" fill="black"/>
<path d="M38.8292 87.8047H33.9756V92.6827H38.8292V87.8047Z" fill="black"/>
<path d="M38.8292 82.9268H33.9756V87.8048H38.8292V82.9268Z" fill="black"/>
<path d="M38.8292 78.0488H33.9756V82.9269H38.8292V78.0488Z" fill="black"/>
<path d="M38.8292 73.1709H33.9756V78.0489H38.8292V73.1709Z" fill="black"/>
<path d="M38.8292 53.6582H33.9756V58.5363H38.8292V53.6582Z" fill="black"/>
<path d="M38.8292 48.7803H33.9756V53.6583H38.8292V48.7803Z" fill="black"/>
<path d="M38.8292 39.0244H33.9756V43.9025H38.8292V39.0244Z" fill="black"/>
<path d="M43.683 190.244H38.8293V195.122H43.683V190.244Z" fill="black"/>
<path d="M43.683 185.366H38.8293V190.244H43.683V185.366Z" fill="black"/>
<path d="M43.683 175.609H38.8293V180.487H43.683V175.609Z" fill="black"/>
<path d="M43.683 170.731H38.8293V175.609H43.683V170.731Z" fill="black"/>
<path d="M43.683 165.854H38.8293V170.732H43.683V165.854Z" fill="black"/>
<path d="M43.683 151.22H38.8293V156.098H43.683V151.22Z" fill="black"/>
<path d="M43.683 146.342H38.8293V151.22H43.683V146.342Z" fill="black"/>
<path d="M43.683 136.585H38.8293V141.463H43.683V136.585Z" fill="black"/>
<path d="M43.683 126.829H38.8293V131.707H43.683V126.829Z" fill="black"/>
<path d="M43.683 121.951H38.8293V126.829H43.683V121.951Z" fill="black"/>
<path d="M43.683 117.073H38.8293V121.951H43.683V117.073Z" fill="black"/>
<path d="M43.683 102.439H38.8293V107.318H43.683V102.439Z" fill="black"/>
<path d="M43.683 68.293H38.8293V73.171H43.683V68.293Z" fill="black"/>
<path d="M43.683 63.415H38.8293V68.2931H43.683V63.415Z" fill="black"/>
<path d="M43.683 58.5361H38.8293V63.4142H43.683V58.5361Z" fill="black"/>
<path d="M43.683 48.7803H38.8293V53.6583H43.683V48.7803Z" fill="black"/>
<path d="M43.683 43.9023H38.8293V48.7804H43.683V43.9023Z" fill="black"/>
<path d="M43.683 34.1465H38.8293V39.0245H43.683V34.1465Z" fill="black"/>
<path d="M43.683 14.6338H38.8293V19.5118H43.683V14.6338Z" fill="black"/>
<path d="M43.683 4.87793H38.8293V9.75598H43.683V4.87793Z" fill="black"/>
<path d="M43.683 0H38.8293V4.87805H43.683V0Z" fill="black"/>
<path d="M48.5365 195.122H43.6829V200H48.5365V195.122Z" fill="black"/>
<path d="M48.5365 190.244H43.6829V195.122H48.5365V190.244Z" fill="black"/>
<path d="M48.5365 180.488H43.6829V185.366H48.5365V180.488Z" fill="black"/>
<path d="M48.5365 165.854H43.6829V170.732H48.5365V165.854Z" fill="black"/>
<path d="M48.5365 160.976H43.6829V165.854H48.5365V160.976Z" fill="black"/>
<path d="M48.5365 156.098H43.6829V160.976H48.5365V156.098Z" fill="black"/>
<path d="M48.5365 141.464H43.6829V146.342H48.5365V141.464Z" fill="black"/>
<path d="M48.5365 136.585H43.6829V141.463H48.5365V136.585Z" fill="black"/>
<path d="M48.5365 131.707H43.6829V136.585H48.5365V131.707Z" fill="black"/>
<path d="M48.5365 126.829H43.6829V131.707H48.5365V126.829Z" fill="black"/>
<path d="M48.5365 117.073H43.6829V121.951H48.5365V117.073Z" fill="black"/>
<path d="M48.5365 82.9268H43.6829V87.8048H48.5365V82.9268Z" fill="black"/>
<path d="M48.5365 78.0488H43.6829V82.9269H48.5365V78.0488Z" fill="black"/>
<path d="M48.5365 63.415H43.6829V68.2931H48.5365V63.415Z" fill="black"/>
<path d="M48.5365 39.0244H43.6829V43.9025H48.5365V39.0244Z" fill="black"/>
<path d="M48.5365 34.1465H43.6829V39.0245H48.5365V34.1465Z" fill="black"/>
<path d="M48.5365 14.6338H43.6829V19.5118H48.5365V14.6338Z" fill="black"/>
<path d="M53.3903 190.244H48.5366V195.122H53.3903V190.244Z" fill="black"/>
<path d="M53.3903 185.366H48.5366V190.244H53.3903V185.366Z" fill="black"/>
<path d="M53.3903 170.731H48.5366V175.609H53.3903V170.731Z" fill="black"/>
<path d="M53.3903 151.22H48.5366V156.098H53.3903V151.22Z" fill="black"/>
<path d="M53.3903 141.464H48.5366V146.342H53.3903V141.464Z" fill="black"/>
<path d="M53.3903 126.829H48.5366V131.707H53.3903V126.829Z" fill="black"/>
<path d="M53.3903 121.951H48.5366V126.829H53.3903V121.951Z" fill="black"/>
<path d="M53.3903 107.317H48.5366V112.195H53.3903V107.317Z" fill="black"/>
<path d="M53.3903 92.6826H48.5366V97.5607H53.3903V92.6826Z" fill="black"/>
<path d="M53.3903 87.8047H48.5366V92.6827H53.3903V87.8047Z" fill="black"/>
<path d="M53.3903 78.0488H48.5366V82.9269H53.3903V78.0488Z" fill="black"/>
<path d="M53.3903 68.293H48.5366V73.171H53.3903V68.293Z" fill="black"/>
<path d="M53.3903 63.415H48.5366V68.2931H53.3903V63.415Z" fill="black"/>
<path d="M53.3903 48.7803H48.5366V53.6583H53.3903V48.7803Z" fill="black"/>
<path d="M53.3903 43.9023H48.5366V48.7804H53.3903V43.9023Z" fill="black"/>
<path d="M53.3903 34.1465H48.5366V39.0245H53.3903V34.1465Z" fill="black"/>
<path d="M53.3903 29.2686H48.5366V34.1466H53.3903V29.2686Z" fill="black"/>
<path d="M53.3903 24.3906H48.5366V29.2687H53.3903V24.3906Z" fill="black"/>
<path d="M53.3903 19.5117H48.5366V24.3898H53.3903V19.5117Z" fill="black"/>
<path d="M53.3903 14.6338H48.5366V19.5118H53.3903V14.6338Z" fill="black"/>
<path d="M53.3903 9.75586H48.5366V14.6339H53.3903V9.75586Z" fill="black"/>
<path d="M58.2438 190.244H53.3901V195.122H58.2438V190.244Z" fill="black"/>
<path d="M58.2438 185.366H53.3901V190.244H58.2438V185.366Z" fill="black"/>
<path d="M58.2438 175.609H53.3901V180.487H58.2438V175.609Z" fill="black"/>
<path d="M58.2438 170.731H53.3901V175.609H58.2438V170.731Z" fill="black"/>
<path d="M58.2438 165.854H53.3901V170.732H58.2438V165.854Z" fill="black"/>
<path d="M58.2438 160.976H53.3901V165.854H58.2438V160.976Z" fill="black"/>
<path d="M58.2438 146.342H53.3901V151.22H58.2438V146.342Z" fill="black"/>
<path d="M58.2438 126.829H53.3901V131.707H58.2438V126.829Z" fill="black"/>
<path d="M58.2438 121.951H53.3901V126.829H58.2438V121.951Z" fill="black"/>
<path d="M58.2438 117.073H53.3901V121.951H58.2438V117.073Z" fill="black"/>
<path d="M58.2438 112.195H53.3901V117.073H58.2438V112.195Z" fill="black"/>
<path d="M58.2438 107.317H53.3901V112.195H58.2438V107.317Z" fill="black"/>
<path d="M58.2438 102.439H53.3901V107.318H58.2438V102.439Z" fill="black"/>
<path d="M58.2438 92.6826H53.3901V97.5607H58.2438V92.6826Z" fill="black"/>
<path d="M58.2438 87.8047H53.3901V92.6827H58.2438V87.8047Z" fill="black"/>
<path d="M58.2438 63.415H53.3901V68.2931H58.2438V63.415Z" fill="black"/>
<path d="M58.2438 53.6582H53.3901V58.5363H58.2438V53.6582Z" fill="black"/>
<path d="M58.2438 39.0244H53.3901V43.9025H58.2438V39.0244Z" fill="black"/>
<path d="M58.2438 34.1465H53.3901V39.0245H58.2438V34.1465Z" fill="black"/>
<path d="M58.2438 24.3906H53.3901V29.2687H58.2438V24.3906Z" fill="black"/>
<path d="M58.2438 19.5117H53.3901V24.3898H58.2438V19.5117Z" fill="black"/>
<path d="M58.2438 4.87793H53.3901V9.75598H58.2438V4.87793Z" fill="black"/>
<path d="M58.2438 0H53.3901V4.87805H58.2438V0Z" fill="black"/>
<path d="M63.0976 195.122H58.2439V200H63.0976V195.122Z" fill="black"/>
<path d="M63.0976 180.488H58.2439V185.366H63.0976V180.488Z" fill="black"/>
<path d="M63.0976 165.854H58.2439V170.732H63.0976V165.854Z" fill="black"/>
<path d="M63.0976 160.976H58.2439V165.854H63.0976V160.976Z" fill="black"/>
<path d="M63.0976 156.098H58.2439V160.976H63.0976V156.098Z" fill="black"/>
<path d="M63.0976 151.22H58.2439V156.098H63.0976V151.22Z" fill="black"/>
<path d="M63.0976 146.342H58.2439V151.22H63.0976V146.342Z" fill="black"/>
<path d="M63.0976 141.464H58.2439V146.342H63.0976V141.464Z" fill="black"/>
<path d="M63.0976 136.585H58.2439V141.463H63.0976V136.585Z" fill="black"/>
<path d="M63.0976 131.707H58.2439V136.585H63.0976V131.707Z" fill="black"/>
<path d="M63.0976 121.951H58.2439V126.829H63.0976V121.951Z" fill="black"/>
<path d="M63.0976 117.073H58.2439V121.951H63.0976V117.073Z" fill="black"/>
<path d="M63.0976 112.195H58.2439V117.073H63.0976V112.195Z" fill="black"/>
<path d="M63.0976 102.439H58.2439V107.318H63.0976V102.439Z" fill="black"/>
<path d="M63.0976 97.5605H58.2439V102.439H63.0976V97.5605Z" fill="black"/>
<path d="M63.0976 87.8047H58.2439V92.6827H63.0976V87.8047Z" fill="black"/>
<path d="M63.0976 78.0488H58.2439V82.9269H63.0976V78.0488Z" fill="black"/>
<path d="M63.0976 68.293H58.2439V73.171H63.0976V68.293Z" fill="black"/>
<path d="M63.0976 58.5361H58.2439V63.4142H63.0976V58.5361Z" fill="black"/>
<path d="M63.0976 53.6582H58.2439V58.5363H63.0976V53.6582Z" fill="black"/>
<path d="M63.0976 43.9023H58.2439V48.7804H63.0976V43.9023Z" fill="black"/>
<path d="M63.0976 34.1465H58.2439V39.0245H63.0976V34.1465Z" fill="black"/>
<path d="M63.0976 29.2686H58.2439V34.1466H63.0976V29.2686Z" fill="black"/>
<path d="M63.0976 24.3906H58.2439V29.2687H63.0976V24.3906Z" fill="black"/>
<path d="M63.0976 19.5117H58.2439V24.3898H63.0976V19.5117Z" fill="black"/>
<path d="M63.0976 14.6338H58.2439V19.5118H63.0976V14.6338Z" fill="black"/>
<path d="M63.0976 9.75586H58.2439V14.6339H63.0976V9.75586Z" fill="black"/>
<path d="M67.9513 190.244H63.0977V195.122H67.9513V190.244Z" fill="black"/>
<path d="M67.9513 185.366H63.0977V190.244H67.9513V185.366Z" fill="black"/>
<path d="M67.9513 180.488H63.0977V185.366H67.9513V180.488Z" fill="black"/>
<path d="M67.9513 156.098H63.0977V160.976H67.9513V156.098Z" fill="black"/>
<path d="M67.9513 151.22H63.0977V156.098H67.9513V151.22Z" fill="black"/>
<path d="M67.9513 141.464H63.0977V146.342H67.9513V141.464Z" fill="black"/>
<path d="M67.9513 117.073H63.0977V121.951H67.9513V117.073Z" fill="black"/>
<path d="M67.9513 107.317H63.0977V112.195H67.9513V107.317Z" fill="black"/>
<path d="M67.9513 97.5605H63.0977V102.439H67.9513V97.5605Z" fill="black"/>
<path d="M67.9513 87.8047H63.0977V92.6827H67.9513V87.8047Z" fill="black"/>
<path d="M67.9513 82.9268H63.0977V87.8048H67.9513V82.9268Z" fill="black"/>
<path d="M67.9513 73.1709H63.0977V78.0489H67.9513V73.1709Z" fill="black"/>
<path d="M67.9513 68.293H63.0977V73.171H67.9513V68.293Z" fill="black"/>
<path d="M67.9513 58.5361H63.0977V63.4142H67.9513V58.5361Z" fill="black"/>
<path d="M67.9513 53.6582H63.0977V58.5363H67.9513V53.6582Z" fill="black"/>
<path d="M67.9513 48.7803H63.0977V53.6583H67.9513V48.7803Z" fill="black"/>
<path d="M67.9513 39.0244H63.0977V43.9025H67.9513V39.0244Z" fill="black"/>
<path d="M67.9513 34.1465H63.0977V39.0245H67.9513V34.1465Z" fill="black"/>
<path d="M67.9513 24.3906H63.0977V29.2687H67.9513V24.3906Z" fill="black"/>
<path d="M67.9513 19.5117H63.0977V24.3898H67.9513V19.5117Z" fill="black"/>
<path d="M67.9513 9.75586H63.0977V14.6339H67.9513V9.75586Z" fill="black"/>
<path d="M67.9513 4.87793H63.0977V9.75598H67.9513V4.87793Z" fill="black"/>
<path d="M72.8048 195.122H67.9512V200H72.8048V195.122Z" fill="black"/>
<path d="M72.8048 190.244H67.9512V195.122H72.8048V190.244Z" fill="black"/>
<path d="M72.8048 185.366H67.9512V190.244H72.8048V185.366Z" fill="black"/>
<path d="M72.8048 180.488H67.9512V185.366H72.8048V180.488Z" fill="black"/>
<path d="M72.8048 175.609H67.9512V180.487H72.8048V175.609Z" fill="black"/>
<path d="M72.8048 170.731H67.9512V175.609H72.8048V170.731Z" fill="black"/>
<path d="M72.8048 165.854H67.9512V170.732H72.8048V165.854Z" fill="black"/>
<path d="M72.8048 160.976H67.9512V165.854H72.8048V160.976Z" fill="black"/>
<path d="M72.8048 156.098H67.9512V160.976H72.8048V156.098Z" fill="black"/>
<path d="M72.8048 146.342H67.9512V151.22H72.8048V146.342Z" fill="black"/>
<path d="M72.8048 141.464H67.9512V146.342H72.8048V141.464Z" fill="black"/>
<path d="M72.8048 121.951H67.9512V126.829H72.8048V121.951Z" fill="black"/>
<path d="M72.8048 117.073H67.9512V121.951H72.8048V117.073Z" fill="black"/>
<path d="M72.8048 112.195H67.9512V117.073H72.8048V112.195Z" fill="black"/>
<path d="M72.8048 92.6826H67.9512V97.5607H72.8048V92.6826Z" fill="black"/>
<path d="M72.8048 78.0488H67.9512V82.9269H72.8048V78.0488Z" fill="black"/>
<path d="M72.8048 73.1709H67.9512V78.0489H72.8048V73.1709Z" fill="black"/>
<path d="M72.8048 58.5361H67.9512V63.4142H72.8048V58.5361Z" fill="black"/>
<path d="M72.8048 34.1465H67.9512V39.0245H72.8048V34.1465Z" fill="black"/>
<path d="M72.8048 29.2686H67.9512V34.1466H72.8048V29.2686Z" fill="black"/>
<path d="M72.8048 14.6338H67.9512V19.5118H72.8048V14.6338Z" fill="black"/>
<path d="M72.8048 9.75586H67.9512V14.6339H72.8048V9.75586Z" fill="black"/>
<path d="M72.8048 4.87793H67.9512V9.75598H72.8048V4.87793Z" fill="black"/>
<path d="M72.8048 0H67.9512V4.87805H72.8048V0Z" fill="black"/>
<path d="M77.6586 190.244H72.8049V195.122H77.6586V190.244Z" fill="black"/>
<path d="M77.6586 170.731H72.8049V175.609H77.6586V170.731Z" fill="black"/>
<path d="M77.6586 160.976H72.8049V165.854H77.6586V160.976Z" fill="black"/>
<path d="M77.6586 151.22H72.8049V156.098H77.6586V151.22Z" fill="black"/>
<path d="M77.6586 141.464H72.8049V146.342H77.6586V141.464Z" fill="black"/>
<path d="M77.6586 126.829H72.8049V131.707H77.6586V126.829Z" fill="black"/>
<path d="M77.6586 121.951H72.8049V126.829H77.6586V121.951Z" fill="black"/>
<path d="M77.6586 112.195H72.8049V117.073H77.6586V112.195Z" fill="black"/>
<path d="M77.6586 102.439H72.8049V107.318H77.6586V102.439Z" fill="black"/>
<path d="M77.6586 97.5605H72.8049V102.439H77.6586V97.5605Z" fill="black"/>
<path d="M77.6586 82.9268H72.8049V87.8048H77.6586V82.9268Z" fill="black"/>
<path d="M77.6586 78.0488H72.8049V82.9269H77.6586V78.0488Z" fill="black"/>
<path d="M77.6586 68.293H72.8049V73.171H77.6586V68.293Z" fill="black"/>
<path d="M77.6586 63.415H72.8049V68.2931H77.6586V63.415Z" fill="black"/>
<path d="M77.6586 58.5361H72.8049V63.4142H77.6586V58.5361Z" fill="black"/>
<path d="M77.6586 24.3906H72.8049V29.2687H77.6586V24.3906Z" fill="black"/>
<path d="M77.6586 14.6338H72.8049V19.5118H77.6586V14.6338Z" fill="black"/>
<path d="M77.6586 4.87793H72.8049V9.75598H77.6586V4.87793Z" fill="black"/>
<path d="M77.6586 0H72.8049V4.87805H77.6586V0Z" fill="black"/>
<path d="M82.5121 195.122H77.6584V200H82.5121V195.122Z" fill="black"/>
<path d="M82.5121 180.488H77.6584V185.366H82.5121V180.488Z" fill="black"/>
<path d="M82.5121 156.098H77.6584V160.976H82.5121V156.098Z" fill="black"/>
<path d="M82.5121 141.464H77.6584V146.342H82.5121V141.464Z" fill="black"/>
<path d="M82.5121 131.707H77.6584V136.585H82.5121V131.707Z" fill="black"/>
<path d="M82.5121 117.073H77.6584V121.951H82.5121V117.073Z" fill="black"/>
<path d="M82.5121 107.317H77.6584V112.195H82.5121V107.317Z" fill="black"/>
<path d="M82.5121 102.439H77.6584V107.318H82.5121V102.439Z" fill="black"/>
<path d="M82.5121 97.5605H77.6584V102.439H82.5121V97.5605Z" fill="black"/>
<path d="M82.5121 87.8047H77.6584V92.6827H82.5121V87.8047Z" fill="black"/>
<path d="M82.5121 82.9268H77.6584V87.8048H82.5121V82.9268Z" fill="black"/>
<path d="M82.5121 78.0488H77.6584V82.9269H82.5121V78.0488Z" fill="black"/>
<path d="M82.5121 73.1709H77.6584V78.0489H82.5121V73.1709Z" fill="black"/>
<path d="M82.5121 68.293H77.6584V73.171H82.5121V68.293Z" fill="black"/>
<path d="M82.5121 58.5361H77.6584V63.4142H82.5121V58.5361Z" fill="black"/>
<path d="M82.5121 53.6582H77.6584V58.5363H82.5121V53.6582Z" fill="black"/>
<path d="M82.5121 34.1465H77.6584V39.0245H82.5121V34.1465Z" fill="black"/>
<path d="M82.5121 29.2686H77.6584V34.1466H82.5121V29.2686Z" fill="black"/>
<path d="M82.5121 24.3906H77.6584V29.2687H82.5121V24.3906Z" fill="black"/>
<path d="M82.5121 14.6338H77.6584V19.5118H82.5121V14.6338Z" fill="black"/>
<path d="M82.5121 0H77.6584V4.87805H82.5121V0Z" fill="black"/>
<path d="M87.3659 195.122H82.5122V200H87.3659V195.122Z" fill="black"/>
<path d="M87.3659 190.244H82.5122V195.122H87.3659V190.244Z" fill="black"/>
<path d="M87.3659 185.366H82.5122V190.244H87.3659V185.366Z" fill="black"/>
<path d="M87.3659 170.731H82.5122V175.609H87.3659V170.731Z" fill="black"/>
<path d="M87.3659 165.854H82.5122V170.732H87.3659V165.854Z" fill="black"/>
<path d="M87.3659 160.976H82.5122V165.854H87.3659V160.976Z" fill="black"/>
<path d="M87.3659 131.707H82.5122V136.585H87.3659V131.707Z" fill="black"/>
<path d="M87.3659 117.073H82.5122V121.951H87.3659V117.073Z" fill="black"/>
<path d="M87.3659 112.195H82.5122V117.073H87.3659V112.195Z" fill="black"/>
<path d="M87.3659 102.439H82.5122V107.318H87.3659V102.439Z" fill="black"/>
<path d="M87.3659 82.9268H82.5122V87.8048H87.3659V82.9268Z" fill="black"/>
<path d="M87.3659 78.0488H82.5122V82.9269H87.3659V78.0488Z" fill="black"/>
<path d="M87.3659 68.293H82.5122V73.171H87.3659V68.293Z" fill="black"/>
<path d="M87.3659 58.5361H82.5122V63.4142H87.3659V58.5361Z" fill="black"/>
<path d="M87.3659 53.6582H82.5122V58.5363H87.3659V53.6582Z" fill="black"/>
<path d="M87.3659 48.7803H82.5122V53.6583H87.3659V48.7803Z" fill="black"/>
<path d="M87.3659 39.0244H82.5122V43.9025H87.3659V39.0244Z" fill="black"/>
<path d="M87.3659 24.3906H82.5122V29.2687H87.3659V24.3906Z" fill="black"/>
<path d="M87.3659 9.75586H82.5122V14.6339H87.3659V9.75586Z" fill="black"/>
<path d="M87.3659 0H82.5122V4.87805H87.3659V0Z" fill="black"/>
<path d="M92.2196 195.122H87.366V200H92.2196V195.122Z" fill="black"/>
<path d="M92.2196 185.366H87.366V190.244H92.2196V185.366Z" fill="black"/>
<path d="M92.2196 170.731H87.366V175.609H92.2196V170.731Z" fill="black"/>
<path d="M92.2196 165.854H87.366V170.732H92.2196V165.854Z" fill="black"/>
<path d="M92.2196 160.976H87.366V165.854H92.2196V160.976Z" fill="black"/>
<path d="M92.2196 156.098H87.366V160.976H92.2196V156.098Z" fill="black"/>
<path d="M92.2196 146.342H87.366V151.22H92.2196V146.342Z" fill="black"/>
<path d="M92.2196 126.829H87.366V131.707H92.2196V126.829Z" fill="black"/>
<path d="M92.2196 117.073H87.366V121.951H92.2196V117.073Z" fill="black"/>
<path d="M92.2196 97.5605H87.366V102.439H92.2196V97.5605Z" fill="black"/>
<path d="M92.2196 82.9268H87.366V87.8048H92.2196V82.9268Z" fill="black"/>
<path d="M92.2196 63.415H87.366V68.2931H92.2196V63.415Z" fill="black"/>
<path d="M92.2196 58.5361H87.366V63.4142H92.2196V58.5361Z" fill="black"/>
<path d="M92.2196 43.9023H87.366V48.7804H92.2196V43.9023Z" fill="black"/>
<path d="M92.2196 39.0244H87.366V43.9025H92.2196V39.0244Z" fill="black"/>
<path d="M92.2196 34.1465H87.366V39.0245H92.2196V34.1465Z" fill="black"/>
<path d="M92.2196 29.2686H87.366V34.1466H92.2196V29.2686Z" fill="black"/>
<path d="M92.2196 19.5117H87.366V24.3898H92.2196V19.5117Z" fill="black"/>
<path d="M92.2196 14.6338H87.366V19.5118H92.2196V14.6338Z" fill="black"/>
<path d="M92.2196 9.75586H87.366V14.6339H92.2196V9.75586Z" fill="black"/>
<path d="M97.0731 190.244H92.2195V195.122H97.0731V190.244Z" fill="black"/>
<path d="M97.0731 165.854H92.2195V170.732H97.0731V165.854Z" fill="black"/>
<path d="M97.0731 141.464H92.2195V146.342H97.0731V141.464Z" fill="black"/>
<path d="M97.0731 126.829H92.2195V131.707H97.0731V126.829Z" fill="black"/>
<path d="M97.0731 117.073H92.2195V121.951H97.0731V117.073Z" fill="black"/>
<path d="M97.0731 112.195H92.2195V117.073H97.0731V112.195Z" fill="black"/>
<path d="M97.0731 102.439H92.2195V107.318H97.0731V102.439Z" fill="black"/>
<path d="M97.0731 97.5605H92.2195V102.439H97.0731V97.5605Z" fill="black"/>
<path d="M97.0731 92.6826H92.2195V97.5607H97.0731V92.6826Z" fill="black"/>
<path d="M97.0731 73.1709H92.2195V78.0489H97.0731V73.1709Z" fill="black"/>
<path d="M97.0731 63.415H92.2195V68.2931H97.0731V63.415Z" fill="black"/>
<path d="M97.0731 58.5361H92.2195V63.4142H97.0731V58.5361Z" fill="black"/>
<path d="M97.0731 39.0244H92.2195V43.9025H97.0731V39.0244Z" fill="black"/>
<path d="M97.0731 34.1465H92.2195V39.0245H97.0731V34.1465Z" fill="black"/>
<path d="M97.0731 19.5117H92.2195V24.3898H97.0731V19.5117Z" fill="black"/>
<path d="M97.0731 14.6338H92.2195V19.5118H97.0731V14.6338Z" fill="black"/>
<path d="M97.0731 9.75586H92.2195V14.6339H97.0731V9.75586Z" fill="black"/>
<path d="M97.0731 0H92.2195V4.87805H97.0731V0Z" fill="black"/>
<path d="M101.927 195.122H97.0732V200H101.927V195.122Z" fill="black"/>
<path d="M101.927 185.366H97.0732V190.244H101.927V185.366Z" fill="black"/>
<path d="M101.927 170.731H97.0732V175.609H101.927V170.731Z" fill="black"/>
<path d="M101.927 165.854H97.0732V170.732H101.927V165.854Z" fill="black"/>
<path d="M101.927 160.976H97.0732V165.854H101.927V160.976Z" fill="black"/>
<path d="M101.927 156.098H97.0732V160.976H101.927V156.098Z" fill="black"/>
<path d="M101.927 136.585H97.0732V141.463H101.927V136.585Z" fill="black"/>
<path d="M101.927 131.707H97.0732V136.585H101.927V131.707Z" fill="black"/>
<path d="M101.927 126.829H97.0732V131.707H101.927V126.829Z" fill="black"/>
<path d="M101.927 121.951H97.0732V126.829H101.927V121.951Z" fill="black"/>
<path d="M101.927 117.073H97.0732V121.951H101.927V117.073Z" fill="black"/>
<path d="M101.927 107.317H97.0732V112.195H101.927V107.317Z" fill="black"/>
<path d="M101.927 102.439H97.0732V107.318H101.927V102.439Z" fill="black"/>
<path d="M101.927 97.5605H97.0732V102.439H101.927V97.5605Z" fill="black"/>
<path d="M101.927 92.6826H97.0732V97.5607H101.927V92.6826Z" fill="black"/>
<path d="M101.927 82.9268H97.0732V87.8048H101.927V82.9268Z" fill="black"/>
<path d="M101.927 68.293H97.0732V73.171H101.927V68.293Z" fill="black"/>
<path d="M101.927 48.7803H97.0732V53.6583H101.927V48.7803Z" fill="black"/>
<path d="M101.927 43.9023H97.0732V48.7804H101.927V43.9023Z" fill="black"/>
<path d="M101.927 29.2686H97.0732V34.1466H101.927V29.2686Z" fill="black"/>
<path d="M101.927 19.5117H97.0732V24.3898H101.927V19.5117Z" fill="black"/>
<path d="M101.927 0H97.0732V4.87805H101.927V0Z" fill="black"/>
<path d="M106.78 195.122H101.927V200H106.78V195.122Z" fill="black"/>
<path d="M106.78 190.244H101.927V195.122H106.78V190.244Z" fill="black"/>
<path d="M106.78 185.366H101.927V190.244H106.78V185.366Z" fill="black"/>
<path d="M106.78 170.731H101.927V175.609H106.78V170.731Z" fill="black"/>
<path d="M106.78 165.854H101.927V170.732H106.78V165.854Z" fill="black"/>
<path d="M106.78 156.098H101.927V160.976H106.78V156.098Z" fill="black"/>
<path d="M106.78 146.342H101.927V151.22H106.78V146.342Z" fill="black"/>
<path d="M106.78 136.585H101.927V141.463H106.78V136.585Z" fill="black"/>
<path d="M106.78 126.829H101.927V131.707H106.78V126.829Z" fill="black"/>
<path d="M106.78 121.951H101.927V126.829H106.78V121.951Z" fill="black"/>
<path d="M106.78 107.317H101.927V112.195H106.78V107.317Z" fill="black"/>
<path d="M106.78 92.6826H101.927V97.5607H106.78V92.6826Z" fill="black"/>
<path d="M106.78 82.9268H101.927V87.8048H106.78V82.9268Z" fill="black"/>
<path d="M106.78 73.1709H101.927V78.0489H106.78V73.1709Z" fill="black"/>
<path d="M106.78 63.415H101.927V68.2931H106.78V63.415Z" fill="black"/>
<path d="M106.78 53.6582H101.927V58.5363H106.78V53.6582Z" fill="black"/>
<path d="M106.78 48.7803H101.927V53.6583H106.78V48.7803Z" fill="black"/>
<path d="M106.78 19.5117H101.927V24.3898H106.78V19.5117Z" fill="black"/>
<path d="M106.78 9.75586H101.927V14.6339H106.78V9.75586Z" fill="black"/>
<path d="M106.78 4.87793H101.927V9.75598H106.78V4.87793Z" fill="black"/>
<path d="M111.634 190.244H106.781V195.122H111.634V190.244Z" fill="black"/>
<path d="M111.634 180.488H106.781V185.366H111.634V180.488Z" fill="black"/>
<path d="M111.634 175.609H106.781V180.487H111.634V175.609Z" fill="black"/>
<path d="M111.634 170.731H106.781V175.609H111.634V170.731Z" fill="black"/>
<path d="M111.634 156.098H106.781V160.976H111.634V156.098Z" fill="black"/>
<path d="M111.634 151.22H106.781V156.098H111.634V151.22Z" fill="black"/>
<path d="M111.634 141.464H106.781V146.342H111.634V141.464Z" fill="black"/>
<path d="M111.634 136.585H106.781V141.463H111.634V136.585Z" fill="black"/>
<path d="M111.634 121.951H106.781V126.829H111.634V121.951Z" fill="black"/>
<path d="M111.634 92.6826H106.781V97.5607H111.634V92.6826Z" fill="black"/>
<path d="M111.634 87.8047H106.781V92.6827H111.634V87.8047Z" fill="black"/>
<path d="M111.634 78.0488H106.781V82.9269H111.634V78.0488Z" fill="black"/>
<path d="M111.634 68.293H106.781V73.171H111.634V68.293Z" fill="black"/>
<path d="M111.634 63.415H106.781V68.2931H111.634V63.415Z" fill="black"/>
<path d="M111.634 48.7803H106.781V53.6583H111.634V48.7803Z" fill="black"/>
<path d="M111.634 43.9023H106.781V48.7804H111.634V43.9023Z" fill="black"/>
<path d="M111.634 34.1465H106.781V39.0245H111.634V34.1465Z" fill="black"/>
<path d="M111.634 29.2686H106.781V34.1466H111.634V29.2686Z" fill="black"/>
<path d="M111.634 24.3906H106.781V29.2687H111.634V24.3906Z" fill="black"/>
<path d="M111.634 19.5117H106.781V24.3898H111.634V19.5117Z" fill="black"/>
<path d="M111.634 14.6338H106.781V19.5118H111.634V14.6338Z" fill="black"/>
<path d="M111.634 9.75586H106.781V14.6339H111.634V9.75586Z" fill="black"/>
<path d="M111.634 4.87793H106.781V9.75598H111.634V4.87793Z" fill="black"/>
<path d="M116.488 195.122H111.634V200H116.488V195.122Z" fill="black"/>
<path d="M116.488 185.366H111.634V190.244H116.488V185.366Z" fill="black"/>
<path d="M116.488 180.488H111.634V185.366H116.488V180.488Z" fill="black"/>
<path d="M116.488 170.731H111.634V175.609H116.488V170.731Z" fill="black"/>
<path d="M116.488 160.976H111.634V165.854H116.488V160.976Z" fill="black"/>
<path d="M116.488 156.098H111.634V160.976H116.488V156.098Z" fill="black"/>
<path d="M116.488 146.342H111.634V151.22H116.488V146.342Z" fill="black"/>
<path d="M116.488 131.707H111.634V136.585H116.488V131.707Z" fill="black"/>
<path d="M116.488 126.829H111.634V131.707H116.488V126.829Z" fill="black"/>
<path d="M116.488 121.951H111.634V126.829H116.488V121.951Z" fill="black"/>
<path d="M116.488 107.317H111.634V112.195H116.488V107.317Z" fill="black"/>
<path d="M116.488 102.439H111.634V107.318H116.488V102.439Z" fill="black"/>
<path d="M116.488 97.5605H111.634V102.439H116.488V97.5605Z" fill="black"/>
<path d="M116.488 92.6826H111.634V97.5607H116.488V92.6826Z" fill="black"/>
<path d="M116.488 73.1709H111.634V78.0489H116.488V73.1709Z" fill="black"/>
<path d="M116.488 68.293H111.634V73.171H116.488V68.293Z" fill="black"/>
<path d="M116.488 63.415H111.634V68.2931H116.488V63.415Z" fill="black"/>
<path d="M116.488 39.0244H111.634V43.9025H116.488V39.0244Z" fill="black"/>
<path d="M116.488 34.1465H111.634V39.0245H116.488V34.1465Z" fill="black"/>
<path d="M116.488 19.5117H111.634V24.3898H116.488V19.5117Z" fill="black"/>
<path d="M116.488 14.6338H111.634V19.5118H116.488V14.6338Z" fill="black"/>
<path d="M116.488 0H111.634V4.87805H116.488V0Z" fill="black"/>
<path d="M121.341 195.122H116.488V200H121.341V195.122Z" fill="black"/>
<path d="M121.341 190.244H116.488V195.122H121.341V190.244Z" fill="black"/>
<path d="M121.341 175.609H116.488V180.487H121.341V175.609Z" fill="black"/>
<path d="M121.341 165.854H116.488V170.732H121.341V165.854Z" fill="black"/>
<path d="M121.341 160.976H116.488V165.854H121.341V160.976Z" fill="black"/>
<path d="M121.341 156.098H116.488V160.976H121.341V156.098Z" fill="black"/>
<path d="M121.341 141.464H116.488V146.342H121.341V141.464Z" fill="black"/>
<path d="M121.341 126.829H116.488V131.707H121.341V126.829Z" fill="black"/>
<path d="M121.341 121.951H116.488V126.829H121.341V121.951Z" fill="black"/>
<path d="M121.341 117.073H116.488V121.951H121.341V117.073Z" fill="black"/>
<path d="M121.341 112.195H116.488V117.073H121.341V112.195Z" fill="black"/>
<path d="M121.341 102.439H116.488V107.318H121.341V102.439Z" fill="black"/>
<path d="M121.341 97.5605H116.488V102.439H121.341V97.5605Z" fill="black"/>
<path d="M121.341 82.9268H116.488V87.8048H121.341V82.9268Z" fill="black"/>
<path d="M121.341 63.415H116.488V68.2931H121.341V63.415Z" fill="black"/>
<path d="M121.341 58.5361H116.488V63.4142H121.341V58.5361Z" fill="black"/>
<path d="M121.341 48.7803H116.488V53.6583H121.341V48.7803Z" fill="black"/>
<path d="M121.341 43.9023H116.488V48.7804H121.341V43.9023Z" fill="black"/>
<path d="M121.341 34.1465H116.488V39.0245H121.341V34.1465Z" fill="black"/>
<path d="M121.341 29.2686H116.488V34.1466H121.341V29.2686Z" fill="black"/>
<path d="M121.341 14.6338H116.488V19.5118H121.341V14.6338Z" fill="black"/>
<path d="M121.341 0H116.488V4.87805H121.341V0Z" fill="black"/>
<path d="M126.195 151.22H121.342V156.098H126.195V151.22Z" fill="black"/>
<path d="M126.195 141.464H121.342V146.342H126.195V141.464Z" fill="black"/>
<path d="M126.195 136.585H121.342V141.463H126.195V136.585Z" fill="black"/>
<path d="M126.195 117.073H121.342V121.951H126.195V117.073Z" fill="black"/>
<path d="M126.195 107.317H121.342V112.195H126.195V107.317Z" fill="black"/>
<path d="M126.195 97.5605H121.342V102.439H126.195V97.5605Z" fill="black"/>
<path d="M126.195 92.6826H121.342V97.5607H126.195V92.6826Z" fill="black"/>
<path d="M126.195 87.8047H121.342V92.6827H126.195V87.8047Z" fill="black"/>
<path d="M126.195 82.9268H121.342V87.8048H126.195V82.9268Z" fill="black"/>
<path d="M126.195 68.293H121.342V73.171H126.195V68.293Z" fill="black"/>
<path d="M126.195 58.5361H121.342V63.4142H126.195V58.5361Z" fill="black"/>
<path d="M126.195 48.7803H121.342V53.6583H126.195V48.7803Z" fill="black"/>
<path d="M126.195 34.1465H121.342V39.0245H126.195V34.1465Z" fill="black"/>
<path d="M126.195 24.3906H121.342V29.2687H126.195V24.3906Z" fill="black"/>
<path d="M126.195 19.5117H121.342V24.3898H126.195V19.5117Z" fill="black"/>
<path d="M126.195 4.87793H121.342V9.75598H126.195V4.87793Z" fill="black"/>
<path d="M126.195 0H121.342V4.87805H126.195V0Z" fill="black"/>
<path d="M131.049 195.122H126.195V200H131.049V195.122Z" fill="black"/>
<path d="M131.049 190.244H126.195V195.122H131.049V190.244Z" fill="black"/>
<path d="M131.049 175.609H126.195V180.487H131.049V175.609Z" fill="black"/>
<path d="M131.049 170.731H126.195V175.609H131.049V170.731Z" fill="black"/>
<path d="M131.049 165.854H126.195V170.732H131.049V165.854Z" fill="black"/>
<path d="M131.049 156.098H126.195V160.976H131.049V156.098Z" fill="black"/>
<path d="M131.049 141.464H126.195V146.342H131.049V141.464Z" fill="black"/>
<path d="M131.049 121.951H126.195V126.829H131.049V121.951Z" fill="black"/>
<path d="M131.049 112.195H126.195V117.073H131.049V112.195Z" fill="black"/>
<path d="M131.049 102.439H126.195V107.318H131.049V102.439Z" fill="black"/>
<path d="M131.049 97.5605H126.195V102.439H131.049V97.5605Z" fill="black"/>
<path d="M131.049 87.8047H126.195V92.6827H131.049V87.8047Z" fill="black"/>
<path d="M131.049 82.9268H126.195V87.8048H131.049V82.9268Z" fill="black"/>
<path d="M131.049 78.0488H126.195V82.9269H131.049V78.0488Z" fill="black"/>
<path d="M131.049 53.6582H126.195V58.5363H131.049V53.6582Z" fill="black"/>
<path d="M131.049 48.7803H126.195V53.6583H131.049V48.7803Z" fill="black"/>
<path d="M131.049 43.9023H126.195V48.7804H131.049V43.9023Z" fill="black"/>
<path d="M131.049 39.0244H126.195V43.9025H131.049V39.0244Z" fill="black"/>
<path d="M131.049 34.1465H126.195V39.0245H131.049V34.1465Z" fill="black"/>
<path d="M131.049 29.2686H126.195V34.1466H131.049V29.2686Z" fill="black"/>
<path d="M131.049 14.6338H126.195V19.5118H131.049V14.6338Z" fill="black"/>
<path d="M131.049 9.75586H126.195V14.6339H131.049V9.75586Z" fill="black"/>
<path d="M131.049 0H126.195V4.87805H131.049V0Z" fill="black"/>
<path d="M135.902 170.731H131.049V175.609H135.902V170.731Z" fill="black"/>
<path d="M135.902 165.854H131.049V170.732H135.902V165.854Z" fill="black"/>
<path d="M135.902 141.464H131.049V146.342H135.902V141.464Z" fill="black"/>
<path d="M135.902 126.829H131.049V131.707H135.902V126.829Z" fill="black"/>
<path d="M135.902 121.951H131.049V126.829H135.902V121.951Z" fill="black"/>
<path d="M135.902 107.317H131.049V112.195H135.902V107.317Z" fill="black"/>
<path d="M135.902 102.439H131.049V107.318H135.902V102.439Z" fill="black"/>
<path d="M135.902 97.5605H131.049V102.439H135.902V97.5605Z" fill="black"/>
<path d="M135.902 87.8047H131.049V92.6827H135.902V87.8047Z" fill="black"/>
<path d="M135.902 82.9268H131.049V87.8048H135.902V82.9268Z" fill="black"/>
<path d="M135.902 68.293H131.049V73.171H135.902V68.293Z" fill="black"/>
<path d="M135.902 63.415H131.049V68.2931H135.902V63.415Z" fill="black"/>
<path d="M135.902 53.6582H131.049V58.5363H135.902V53.6582Z" fill="black"/>
<path d="M135.902 43.9023H131.049V48.7804H135.902V43.9023Z" fill="black"/>
<path d="M135.902 34.1465H131.049V39.0245H135.902V34.1465Z" fill="black"/>
<path d="M135.902 14.6338H131.049V19.5118H135.902V14.6338Z" fill="black"/>
<path d="M135.902 9.75586H131.049V14.6339H135.902V9.75586Z" fill="black"/>
<path d="M135.902 4.87793H131.049V9.75598H135.902V4.87793Z" fill="black"/>
<path d="M135.902 0H131.049V4.87805H135.902V0Z" fill="black"/>
<path d="M140.756 190.244H135.902V195.122H140.756V190.244Z" fill="black"/>
<path d="M140.756 180.488H135.902V185.366H140.756V180.488Z" fill="black"/>
<path d="M140.756 151.22H135.902V156.098H140.756V151.22Z" fill="black"/>
<path d="M140.756 141.464H135.902V146.342H140.756V141.464Z" fill="black"/>
<path d="M140.756 126.829H135.902V131.707H140.756V126.829Z" fill="black"/>
<path d="M140.756 97.5605H135.902V102.439H140.756V97.5605Z" fill="black"/>
<path d="M140.756 87.8047H135.902V92.6827H140.756V87.8047Z" fill="black"/>
<path d="M140.756 73.1709H135.902V78.0489H140.756V73.1709Z" fill="black"/>
<path d="M140.756 68.293H135.902V73.171H140.756V68.293Z" fill="black"/>
<path d="M140.756 63.415H135.902V68.2931H140.756V63.415Z" fill="black"/>
<path d="M140.756 58.5361H135.902V63.4142H140.756V58.5361Z" fill="black"/>
<path d="M140.756 43.9023H135.902V48.7804H140.756V43.9023Z" fill="black"/>
<path d="M140.756 34.1465H135.902V39.0245H140.756V34.1465Z" fill="black"/>
<path d="M140.756 29.2686H135.902V34.1466H140.756V29.2686Z" fill="black"/>
<path d="M140.756 19.5117H135.902V24.3898H140.756V19.5117Z" fill="black"/>
<path d="M140.756 4.87793H135.902V9.75598H140.756V4.87793Z" fill="black"/>
<path d="M145.61 185.366H140.756V190.244H145.61V185.366Z" fill="black"/>
<path d="M145.61 180.488H140.756V185.366H145.61V180.488Z" fill="black"/>
<path d="M145.61 170.731H140.756V175.609H145.61V170.731Z" fill="black"/>
<path d="M145.61 160.976H140.756V165.854H145.61V160.976Z" fill="black"/>
<path d="M145.61 136.585H140.756V141.463H145.61V136.585Z" fill="black"/>
<path d="M145.61 126.829H140.756V131.707H145.61V126.829Z" fill="black"/>
<path d="M145.61 121.951H140.756V126.829H145.61V121.951Z" fill="black"/>
<path d="M145.61 117.073H140.756V121.951H145.61V117.073Z" fill="black"/>
<path d="M145.61 112.195H140.756V117.073H145.61V112.195Z" fill="black"/>
<path d="M145.61 92.6826H140.756V97.5607H145.61V92.6826Z" fill="black"/>
<path d="M145.61 87.8047H140.756V92.6827H145.61V87.8047Z" fill="black"/>
<path d="M145.61 78.0488H140.756V82.9269H145.61V78.0488Z" fill="black"/>
<path d="M145.61 73.1709H140.756V78.0489H145.61V73.1709Z" fill="black"/>
<path d="M145.61 63.415H140.756V68.2931H145.61V63.415Z" fill="black"/>
<path d="M145.61 58.5361H140.756V63.4142H145.61V58.5361Z" fill="black"/>
<path d="M145.61 43.9023H140.756V48.7804H145.61V43.9023Z" fill="black"/>
<path d="M145.61 39.0244H140.756V43.9025H145.61V39.0244Z" fill="black"/>
<path d="M145.61 34.1465H140.756V39.0245H145.61V34.1465Z" fill="black"/>
<path d="M145.61 24.3906H140.756V29.2687H145.61V24.3906Z" fill="black"/>
<path d="M145.61 19.5117H140.756V24.3898H145.61V19.5117Z" fill="black"/>
<path d="M145.61 14.6338H140.756V19.5118H145.61V14.6338Z" fill="black"/>
<path d="M150.464 195.122H145.61V200H150.464V195.122Z" fill="black"/>
<path d="M150.464 190.244H145.61V195.122H150.464V190.244Z" fill="black"/>
<path d="M150.464 185.366H145.61V190.244H150.464V185.366Z" fill="black"/>
<path d="M150.464 175.609H145.61V180.487H150.464V175.609Z" fill="black"/>
<path d="M150.464 165.854H145.61V170.732H150.464V165.854Z" fill="black"/>
<path d="M150.464 160.976H145.61V165.854H150.464V160.976Z" fill="black"/>
<path d="M150.464 156.098H145.61V160.976H150.464V156.098Z" fill="black"/>
<path d="M150.464 141.464H145.61V146.342H150.464V141.464Z" fill="black"/>
<path d="M150.464 126.829H145.61V131.707H150.464V126.829Z" fill="black"/>
<path d="M150.464 107.317H145.61V112.195H150.464V107.317Z" fill="black"/>
<path d="M150.464 102.439H145.61V107.318H150.464V102.439Z" fill="black"/>
<path d="M150.464 97.5605H145.61V102.439H150.464V97.5605Z" fill="black"/>
<path d="M150.464 92.6826H145.61V97.5607H150.464V92.6826Z" fill="black"/>
<path d="M150.464 78.0488H145.61V82.9269H150.464V78.0488Z" fill="black"/>
<path d="M150.464 73.1709H145.61V78.0489H150.464V73.1709Z" fill="black"/>
<path d="M150.464 68.293H145.61V73.171H150.464V68.293Z" fill="black"/>
<path d="M150.464 63.415H145.61V68.2931H150.464V63.415Z" fill="black"/>
<path d="M150.464 58.5361H145.61V63.4142H150.464V58.5361Z" fill="black"/>
<path d="M150.464 53.6582H145.61V58.5363H150.464V53.6582Z" fill="black"/>
<path d="M150.464 48.7803H145.61V53.6583H150.464V48.7803Z" fill="black"/>
<path d="M150.464 34.1465H145.61V39.0245H150.464V34.1465Z" fill="black"/>
<path d="M150.464 29.2686H145.61V34.1466H150.464V29.2686Z" fill="black"/>
<path d="M150.464 24.3906H145.61V29.2687H150.464V24.3906Z" fill="black"/>
<path d="M150.464 14.6338H145.61V19.5118H150.464V14.6338Z" fill="black"/>
<path d="M150.464 9.75586H145.61V14.6339H150.464V9.75586Z" fill="black"/>
<path d="M150.464 0H145.61V4.87805H150.464V0Z" fill="black"/>
<path d="M155.317 195.122H150.463V200H155.317V195.122Z" fill="black"/>
<path d="M155.317 180.488H150.463V185.366H155.317V180.488Z" fill="black"/>
<path d="M155.317 175.609H150.463V180.487H155.317V175.609Z" fill="black"/>
<path d="M155.317 170.731H150.463V175.609H155.317V170.731Z" fill="black"/>
<path d="M155.317 156.098H150.463V160.976H155.317V156.098Z" fill="black"/>
<path d="M155.317 141.464H150.463V146.342H155.317V141.464Z" fill="black"/>
<path d="M155.317 131.707H150.463V136.585H155.317V131.707Z" fill="black"/>
<path d="M155.317 112.195H150.463V117.073H155.317V112.195Z" fill="black"/>
<path d="M155.317 102.439H150.463V107.318H155.317V102.439Z" fill="black"/>
<path d="M155.317 97.5605H150.463V102.439H155.317V97.5605Z" fill="black"/>
<path d="M155.317 92.6826H150.463V97.5607H155.317V92.6826Z" fill="black"/>
<path d="M155.317 87.8047H150.463V92.6827H155.317V87.8047Z" fill="black"/>
<path d="M155.317 82.9268H150.463V87.8048H155.317V82.9268Z" fill="black"/>
<path d="M155.317 68.293H150.463V73.171H155.317V68.293Z" fill="black"/>
<path d="M155.317 58.5361H150.463V63.4142H155.317V58.5361Z" fill="black"/>
<path d="M155.317 48.7803H150.463V53.6583H155.317V48.7803Z" fill="black"/>
<path d="M155.317 43.9023H150.463V48.7804H155.317V43.9023Z" fill="black"/>
<path d="M155.317 39.0244H150.463V43.9025H155.317V39.0244Z" fill="black"/>
<path d="M155.317 34.1465H150.463V39.0245H155.317V34.1465Z" fill="black"/>
<path d="M155.317 24.3906H150.463V29.2687H155.317V24.3906Z" fill="black"/>
<path d="M155.317 19.5117H150.463V24.3898H155.317V19.5117Z" fill="black"/>
<path d="M160.171 190.244H155.317V195.122H160.171V190.244Z" fill="black"/>
<path d="M160.171 185.366H155.317V190.244H160.171V185.366Z" fill="black"/>
<path d="M160.171 180.488H155.317V185.366H160.171V180.488Z" fill="black"/>
<path d="M160.171 175.609H155.317V180.487H160.171V175.609Z" fill="black"/>
<path d="M160.171 170.731H155.317V175.609H160.171V170.731Z" fill="black"/>
<path d="M160.171 165.854H155.317V170.732H160.171V165.854Z" fill="black"/>
<path d="M160.171 160.976H155.317V165.854H160.171V160.976Z" fill="black"/>
<path d="M160.171 156.098H155.317V160.976H160.171V156.098Z" fill="black"/>
<path d="M160.171 146.342H155.317V151.22H160.171V146.342Z" fill="black"/>
<path d="M160.171 131.707H155.317V136.585H160.171V131.707Z" fill="black"/>
<path d="M160.171 126.829H155.317V131.707H160.171V126.829Z" fill="black"/>
<path d="M160.171 121.951H155.317V126.829H160.171V121.951Z" fill="black"/>
<path d="M160.171 112.195H155.317V117.073H160.171V112.195Z" fill="black"/>
<path d="M160.171 102.439H155.317V107.318H160.171V102.439Z" fill="black"/>
<path d="M160.171 92.6826H155.317V97.5607H160.171V92.6826Z" fill="black"/>
<path d="M160.171 78.0488H155.317V82.9269H160.171V78.0488Z" fill="black"/>
<path d="M160.171 73.1709H155.317V78.0489H160.171V73.1709Z" fill="black"/>
<path d="M160.171 68.293H155.317V73.171H160.171V68.293Z" fill="black"/>
<path d="M160.171 63.415H155.317V68.2931H160.171V63.415Z" fill="black"/>
<path d="M160.171 58.5361H155.317V63.4142H160.171V58.5361Z" fill="black"/>
<path d="M160.171 39.0244H155.317V43.9025H160.171V39.0244Z" fill="black"/>
<path d="M160.171 29.2686H155.317V34.1466H160.171V29.2686Z" fill="black"/>
<path d="M160.171 24.3906H155.317V29.2687H160.171V24.3906Z" fill="black"/>
<path d="M160.171 9.75586H155.317V14.6339H160.171V9.75586Z" fill="black"/>
<path d="M160.171 0H155.317V4.87805H160.171V0Z" fill="black"/>
<path d="M165.024 195.122H160.171V200H165.024V195.122Z" fill="black"/>
<path d="M165.024 190.244H160.171V195.122H165.024V190.244Z" fill="black"/>
<path d="M165.024 185.366H160.171V190.244H165.024V185.366Z" fill="black"/>
<path d="M165.024 180.488H160.171V185.366H165.024V180.488Z" fill="black"/>
<path d="M165.024 175.609H160.171V180.487H165.024V175.609Z" fill="black"/>
<path d="M165.024 156.098H160.171V160.976H165.024V156.098Z" fill="black"/>
<path d="M165.024 136.585H160.171V141.463H165.024V136.585Z" fill="black"/>
<path d="M165.024 121.951H160.171V126.829H165.024V121.951Z" fill="black"/>
<path d="M165.024 117.073H160.171V121.951H165.024V117.073Z" fill="black"/>
<path d="M165.024 97.5605H160.171V102.439H165.024V97.5605Z" fill="black"/>
<path d="M165.024 87.8047H160.171V92.6827H165.024V87.8047Z" fill="black"/>
<path d="M165.024 78.0488H160.171V82.9269H165.024V78.0488Z" fill="black"/>
<path d="M165.024 73.1709H160.171V78.0489H165.024V73.1709Z" fill="black"/>
<path d="M165.024 68.293H160.171V73.171H165.024V68.293Z" fill="black"/>
<path d="M165.024 58.5361H160.171V63.4142H165.024V58.5361Z" fill="black"/>
<path d="M165.024 39.0244H160.171V43.9025H165.024V39.0244Z" fill="black"/>
<path d="M169.878 190.244H165.024V195.122H169.878V190.244Z" fill="black"/>
<path d="M169.878 185.366H165.024V190.244H169.878V185.366Z" fill="black"/>
<path d="M169.878 175.609H165.024V180.487H169.878V175.609Z" fill="black"/>
<path d="M169.878 165.854H165.024V170.732H169.878V165.854Z" fill="black"/>
<path d="M169.878 156.098H165.024V160.976H169.878V156.098Z" fill="black"/>
<path d="M169.878 141.464H165.024V146.342H169.878V141.464Z" fill="black"/>
<path d="M169.878 136.585H165.024V141.463H169.878V136.585Z" fill="black"/>
<path d="M169.878 126.829H165.024V131.707H169.878V126.829Z" fill="black"/>
<path d="M169.878 121.951H165.024V126.829H169.878V121.951Z" fill="black"/>
<path d="M169.878 117.073H165.024V121.951H169.878V117.073Z" fill="black"/>
<path d="M169.878 107.317H165.024V112.195H169.878V107.317Z" fill="black"/>
<path d="M169.878 102.439H165.024V107.318H169.878V102.439Z" fill="black"/>
<path d="M169.878 97.5605H165.024V102.439H169.878V97.5605Z" fill="black"/>
<path d="M169.878 92.6826H165.024V97.5607H169.878V92.6826Z" fill="black"/>
<path d="M169.878 82.9268H165.024V87.8048H169.878V82.9268Z" fill="black"/>
<path d="M169.878 58.5361H165.024V63.4142H169.878V58.5361Z" fill="black"/>
<path d="M169.878 39.0244H165.024V43.9025H169.878V39.0244Z" fill="black"/>
<path d="M169.878 29.2686H165.024V34.1466H169.878V29.2686Z" fill="black"/>
<path d="M169.878 24.3906H165.024V29.2687H169.878V24.3906Z" fill="black"/>
<path d="M169.878 19.5117H165.024V24.3898H169.878V19.5117Z" fill="black"/>
<path d="M169.878 14.6338H165.024V19.5118H169.878V14.6338Z" fill="black"/>
<path d="M169.878 9.75586H165.024V14.6339H169.878V9.75586Z" fill="black"/>
<path d="M169.878 4.87793H165.024V9.75598H169.878V4.87793Z" fill="black"/>
<path d="M169.878 0H165.024V4.87805H169.878V0Z" fill="black"/>
<path d="M174.732 195.122H169.878V200H174.732V195.122Z" fill="black"/>
<path d="M174.732 185.366H169.878V190.244H174.732V185.366Z" fill="black"/>
<path d="M174.732 175.609H169.878V180.487H174.732V175.609Z" fill="black"/>
<path d="M174.732 156.098H169.878V160.976H174.732V156.098Z" fill="black"/>
<path d="M174.732 146.342H169.878V151.22H174.732V146.342Z" fill="black"/>
<path d="M174.732 136.585H169.878V141.463H174.732V136.585Z" fill="black"/>
<path d="M174.732 131.707H169.878V136.585H174.732V131.707Z" fill="black"/>
<path d="M174.732 126.829H169.878V131.707H174.732V126.829Z" fill="black"/>
<path d="M174.732 121.951H169.878V126.829H174.732V121.951Z" fill="black"/>
<path d="M174.732 97.5605H169.878V102.439H174.732V97.5605Z" fill="black"/>
<path d="M174.732 92.6826H169.878V97.5607H174.732V92.6826Z" fill="black"/>
<path d="M174.732 82.9268H169.878V87.8048H174.732V82.9268Z" fill="black"/>
<path d="M174.732 68.293H169.878V73.171H174.732V68.293Z" fill="black"/>
<path d="M174.732 53.6582H169.878V58.5363H174.732V53.6582Z" fill="black"/>
<path d="M174.732 29.2686H169.878V34.1466H174.732V29.2686Z" fill="black"/>
<path d="M174.732 0H169.878V4.87805H174.732V0Z" fill="black"/>
<path d="M179.585 195.122H174.732V200H179.585V195.122Z" fill="black"/>
<path d="M179.585 190.244H174.732V195.122H179.585V190.244Z" fill="black"/>
<path d="M179.585 175.609H174.732V180.487H179.585V175.609Z" fill="black"/>
<path d="M179.585 170.731H174.732V175.609H179.585V170.731Z" fill="black"/>
<path d="M179.585 165.854H174.732V170.732H179.585V165.854Z" fill="black"/>
<path d="M179.585 160.976H174.732V165.854H179.585V160.976Z" fill="black"/>
<path d="M179.585 156.098H174.732V160.976H179.585V156.098Z" fill="black"/>
<path d="M179.585 146.342H174.732V151.22H179.585V146.342Z" fill="black"/>
<path d="M179.585 141.464H174.732V146.342H179.585V141.464Z" fill="black"/>
<path d="M179.585 136.585H174.732V141.463H179.585V136.585Z" fill="black"/>
<path d="M179.585 121.951H174.732V126.829H179.585V121.951Z" fill="black"/>
<path d="M179.585 117.073H174.732V121.951H179.585V117.073Z" fill="black"/>
<path d="M179.585 73.1709H174.732V78.0489H179.585V73.1709Z" fill="black"/>
<path d="M179.585 29.2686H174.732V34.1466H179.585V29.2686Z" fill="black"/>
<path d="M179.585 19.5117H174.732V24.3898H179.585V19.5117Z" fill="black"/>
<path d="M179.585 14.6338H174.732V19.5118H179.585V14.6338Z" fill="black"/>
<path d="M179.585 9.75586H174.732V14.6339H179.585V9.75586Z" fill="black"/>
<path d="M179.585 0H174.732V4.87805H179.585V0Z" fill="black"/>
<path d="M184.439 190.244H179.585V195.122H184.439V190.244Z" fill="black"/>
<path d="M184.439 180.488H179.585V185.366H184.439V180.488Z" fill="black"/>
<path d="M184.439 175.609H179.585V180.487H184.439V175.609Z" fill="black"/>
<path d="M184.439 170.731H179.585V175.609H184.439V170.731Z" fill="black"/>
<path d="M184.439 165.854H179.585V170.732H184.439V165.854Z" fill="black"/>
<path d="M184.439 151.22H179.585V156.098H184.439V151.22Z" fill="black"/>
<path d="M184.439 141.464H179.585V146.342H184.439V141.464Z" fill="black"/>
<path d="M184.439 126.829H179.585V131.707H184.439V126.829Z" fill="black"/>
<path d="M184.439 117.073H179.585V121.951H184.439V117.073Z" fill="black"/>
<path d="M184.439 107.317H179.585V112.195H184.439V107.317Z" fill="black"/>
<path d="M184.439 102.439H179.585V107.318H184.439V102.439Z" fill="black"/>
<path d="M184.439 82.9268H179.585V87.8048H184.439V82.9268Z" fill="black"/>
<path d="M184.439 78.0488H179.585V82.9269H184.439V78.0488Z" fill="black"/>
<path d="M184.439 73.1709H179.585V78.0489H184.439V73.1709Z" fill="black"/>
<path d="M184.439 53.6582H179.585V58.5363H184.439V53.6582Z" fill="black"/>
<path d="M184.439 48.7803H179.585V53.6583H184.439V48.7803Z" fill="black"/>
<path d="M184.439 39.0244H179.585V43.9025H184.439V39.0244Z" fill="black"/>
<path d="M184.439 29.2686H179.585V34.1466H184.439V29.2686Z" fill="black"/>
<path d="M184.439 19.5117H179.585V24.3898H184.439V19.5117Z" fill="black"/>
<path d="M184.439 14.6338H179.585V19.5118H184.439V14.6338Z" fill="black"/>
<path d="M184.439 9.75586H179.585V14.6339H184.439V9.75586Z" fill="black"/>
<path d="M184.439 0H179.585V4.87805H184.439V0Z" fill="black"/>
<path d="M189.293 195.122H184.439V200H189.293V195.122Z" fill="black"/>
<path d="M189.293 190.244H184.439V195.122H189.293V190.244Z" fill="black"/>
<path d="M189.293 175.609H184.439V180.487H189.293V175.609Z" fill="black"/>
<path d="M189.293 170.731H184.439V175.609H189.293V170.731Z" fill="black"/>
<path d="M189.293 146.342H184.439V151.22H189.293V146.342Z" fill="black"/>
<path d="M189.293 141.464H184.439V146.342H189.293V141.464Z" fill="black"/>
<path d="M189.293 136.585H184.439V141.463H189.293V136.585Z" fill="black"/>
<path d="M189.293 112.195H184.439V117.073H189.293V112.195Z" fill="black"/>
<path d="M189.293 97.5605H184.439V102.439H189.293V97.5605Z" fill="black"/>
<path d="M189.293 87.8047H184.439V92.6827H189.293V87.8047Z" fill="black"/>
<path d="M189.293 68.293H184.439V73.171H189.293V68.293Z" fill="black"/>
<path d="M189.293 53.6582H184.439V58.5363H189.293V53.6582Z" fill="black"/>
<path d="M189.293 48.7803H184.439V53.6583H189.293V48.7803Z" fill="black"/>
<path d="M189.293 43.9023H184.439V48.7804H189.293V43.9023Z" fill="black"/>
<path d="M189.293 29.2686H184.439V34.1466H189.293V29.2686Z" fill="black"/>
<path d="M189.293 19.5117H184.439V24.3898H189.293V19.5117Z" fill="black"/>
<path d="M189.293 14.6338H184.439V19.5118H189.293V14.6338Z" fill="black"/>
<path d="M189.293 9.75586H184.439V14.6339H189.293V9.75586Z" fill="black"/>
<path d="M189.293 0H184.439V4.87805H189.293V0Z" fill="black"/>
<path d="M194.146 190.244H189.293V195.122H194.146V190.244Z" fill="black"/>
<path d="M194.146 175.609H189.293V180.487H194.146V175.609Z" fill="black"/>
<path d="M194.146 170.731H189.293V175.609H194.146V170.731Z" fill="black"/>
<path d="M194.146 165.854H189.293V170.732H194.146V165.854Z" fill="black"/>
<path d="M194.146 160.976H189.293V165.854H194.146V160.976Z" fill="black"/>
<path d="M194.146 141.464H189.293V146.342H194.146V141.464Z" fill="black"/>
<path d="M194.146 131.707H189.293V136.585H194.146V131.707Z" fill="black"/>
<path d="M194.146 126.829H189.293V131.707H194.146V126.829Z" fill="black"/>
<path d="M194.146 121.951H189.293V126.829H194.146V121.951Z" fill="black"/>
<path d="M194.146 117.073H189.293V121.951H194.146V117.073Z" fill="black"/>
<path d="M194.146 107.317H189.293V112.195H194.146V107.317Z" fill="black"/>
<path d="M194.146 102.439H189.293V107.318H194.146V102.439Z" fill="black"/>
<path d="M194.146 92.6826H189.293V97.5607H194.146V92.6826Z" fill="black"/>
<path d="M194.146 87.8047H189.293V92.6827H194.146V87.8047Z" fill="black"/>
<path d="M194.146 82.9268H189.293V87.8048H194.146V82.9268Z" fill="black"/>
<path d="M194.146 73.1709H189.293V78.0489H194.146V73.1709Z" fill="black"/>
<path d="M194.146 63.415H189.293V68.2931H194.146V63.415Z" fill="black"/>
<path d="M194.146 53.6582H189.293V58.5363H194.146V53.6582Z" fill="black"/>
<path d="M194.146 48.7803H189.293V53.6583H194.146V48.7803Z" fill="black"/>
<path d="M194.146 39.0244H189.293V43.9025H194.146V39.0244Z" fill="black"/>
<path d="M194.146 29.2686H189.293V34.1466H194.146V29.2686Z" fill="black"/>
<path d="M194.146 0H189.293V4.87805H194.146V0Z" fill="black"/>
<path d="M199 190.244H194.146V195.122H199V190.244Z" fill="black"/>
<path d="M199 180.488H194.146V185.366H199V180.488Z" fill="black"/>
<path d="M199 175.609H194.146V180.487H199V175.609Z" fill="black"/>
<path d="M199 170.731H194.146V175.609H199V170.731Z" fill="black"/>
<path d="M199 165.854H194.146V170.732H199V165.854Z" fill="black"/>
<path d="M199 156.098H194.146V160.976H199V156.098Z" fill="black"/>
<path d="M199 141.464H194.146V146.342H199V141.464Z" fill="black"/>
<path d="M199 136.585H194.146V141.463H199V136.585Z" fill="black"/>
<path d="M199 126.829H194.146V131.707H199V126.829Z" fill="black"/>
<path d="M199 117.073H194.146V121.951H199V117.073Z" fill="black"/>
<path d="M199 102.439H194.146V107.318H199V102.439Z" fill="black"/>
<path d="M199 97.5605H194.146V102.439H199V97.5605Z" fill="black"/>
<path d="M199 92.6826H194.146V97.5607H199V92.6826Z" fill="black"/>
<path d="M199 87.8047H194.146V92.6827H199V87.8047Z" fill="black"/>
<path d="M199 48.7803H194.146V53.6583H199V48.7803Z" fill="black"/>
<path d="M199 43.9023H194.146V48.7804H199V43.9023Z" fill="black"/>
<path d="M199 39.0244H194.146V43.9025H199V39.0244Z" fill="black"/>
<path d="M199 29.2686H194.146V34.1466H199V29.2686Z" fill="black"/>
<path d="M199 24.3906H194.146V29.2687H199V24.3906Z" fill="black"/>
<path d="M199 19.5117H194.146V24.3898H199V19.5117Z" fill="black"/>
<path d="M199 14.6338H194.146V19.5118H199V14.6338Z" fill="black"/>
<path d="M199 9.75586H194.146V14.6339H199V9.75586Z" fill="black"/>
<path d="M199 4.87793H194.146V9.75598H199V4.87793Z" fill="black"/>
<path d="M199 0H194.146V4.87805H199V0Z" fill="black"/>
</g>
<defs>
<clipPath id="clip0_1215_531">
<rect width="199" height="200" fill="white"/>
</clipPath>
</defs>
</svg>
